<svg data-v-fde0c5aa="" xmlns="http://www.w3.org/2000/svg" viewBox="0 0 300 300" class="iconLeftSlogan"><!---->
    <defs data-v-fde0c5aa=""><!----></defs>
    <rect data-v-fde0c5aa="" fill="#559F41" x="0" y="0" width="300px" height="300px"
          class="logo-background-square"></rect>
    <defs data-v-fde0c5aa=""><!----></defs>
    <g data-v-fde0c5aa="" id="9d241a22-5bce-4f20-86a5-99e5e156e9fe" fill="#FFFFFF"
       transform="matrix(2.010775327682495,0,0,2.010775327682495,87.27438180287751,126.1960267832636)">
        <path d="M6.31 1.26L6.31 1.26Q8.27 1.26 9.77 2.51L9.77 2.51L9.77 2.51Q9.90 2.60 9.90 2.79L9.90 2.79L9.90 2.79Q9.90 2.95 9.79 3.09L9.79 3.09L9.79 3.09Q9.67 3.22 9.48 3.22L9.48 3.22L9.48 3.22Q9.32 3.22 9.13 3.05L9.13 3.05L9.13 3.05Q8.06 2.10 6.31 2.10L6.31 2.10L6.31 2.10Q5.08 2.10 4.01 2.76L4.01 2.76L4.01 2.76Q2.94 3.42 2.31 4.51L2.31 4.51L2.31 4.51Q1.68 5.61 1.68 6.86L1.68 6.86L1.68 6.86Q1.68 8.15 2.30 9.25L2.30 9.25L2.30 9.25Q2.93 10.35 4.00 10.99L4.00 10.99L4.00 10.99Q5.07 11.63 6.31 11.63L6.31 11.63L6.31 11.63Q7.97 11.63 9.21 10.61L9.21 10.61L9.21 10.61Q9.31 10.54 9.42 10.54L9.42 10.54L9.42 10.54Q9.59 10.54 9.72 10.67L9.72 10.67L9.72 10.67Q9.86 10.79 9.86 10.98L9.86 10.98L9.86 10.98Q9.86 11.16 9.76 11.27L9.76 11.27L9.76 11.27Q8.55 12.47 6.31 12.47L6.31 12.47L6.31 12.47Q4.84 12.47 3.58 11.71L3.58 11.71L3.58 11.71Q2.32 10.95 1.58 9.65L1.58 9.65L1.58 9.65Q0.84 8.36 0.84 6.86L0.84 6.86L0.84 6.86Q0.84 5.36 1.57 4.07L1.57 4.07L1.57 4.07Q2.31 2.79 3.56 2.02L3.56 2.02L3.56 2.02Q4.82 1.26 6.31 1.26L6.31 1.26ZM15.50 4.59L15.50 4.59Q16.59 4.59 17.49 5.10L17.49 5.10L17.49 5.10Q18.38 5.61 18.89 6.51L18.89 6.51L18.89 6.51Q19.40 7.41 19.40 8.51L19.40 8.51L19.40 8.51Q19.40 9.60 18.89 10.50L18.89 10.50L18.89 10.50Q18.38 11.40 17.49 11.91L17.49 11.91L17.49 11.91Q16.59 12.42 15.50 12.42L15.50 12.42L15.50 12.42Q14.39 12.42 13.50 11.91L13.50 11.91L13.50 11.91Q12.60 11.40 12.09 10.50L12.09 10.50L12.09 10.50Q11.58 9.60 11.58 8.51L11.58 8.51L11.58 8.51Q11.58 7.41 12.09 6.51L12.09 6.51L12.09 6.51Q12.60 5.61 13.50 5.10L13.50 5.10L13.50 5.10Q14.39 4.59 15.50 4.59L15.50 4.59ZM15.50 5.38L15.50 5.38Q14.63 5.38 13.93 5.79L13.93 5.79L13.93 5.79Q13.23 6.20 12.82 6.92L12.82 6.92L12.82 6.92Q12.42 7.63 12.42 8.51L12.42 8.51L12.42 8.51Q12.42 9.39 12.82 10.11L12.82 10.11L12.82 10.11Q13.23 10.82 13.93 11.23L13.93 11.23L13.93 11.23Q14.63 11.63 15.50 11.63L15.50 11.63L15.50 11.63Q16.37 11.63 17.07 11.23L17.07 11.23L17.07 11.23Q17.77 10.82 18.16 10.11L18.16 10.11L18.16 10.11Q18.56 9.39 18.56 8.51L18.56 8.51L18.56 8.51Q18.56 7.63 18.16 6.92L18.16 6.92L18.16 6.92Q17.77 6.20 17.07 5.79L17.07 5.79L17.07 5.79Q16.37 5.38 15.50 5.38L15.50 5.38ZM25.00 4.59L25.00 4.59Q26.10 4.59 26.99 5.10L26.99 5.10L26.99 5.10Q27.89 5.61 28.40 6.51L28.40 6.51L28.40 6.51Q28.91 7.41 28.91 8.51L28.91 8.51L28.91 8.51Q28.91 9.60 28.40 10.50L28.40 10.50L28.40 10.50Q27.89 11.40 26.99 11.91L26.99 11.91L26.99 11.91Q26.10 12.42 25.00 12.42L25.00 12.42L25.00 12.42Q23.90 12.42 23.00 11.91L23.00 11.91L23.00 11.91Q22.11 11.40 21.59 10.50L21.59 10.50L21.59 10.50Q21.08 9.60 21.08 8.51L21.08 8.51L21.08 8.51Q21.08 7.41 21.59 6.51L21.59 6.51L21.59 6.51Q22.11 5.61 23.00 5.10L23.00 5.10L23.00 5.10Q23.90 4.59 25.00 4.59L25.00 4.59ZM25.00 5.38L25.00 5.38Q24.14 5.38 23.44 5.79L23.44 5.79L23.44 5.79Q22.74 6.20 22.33 6.92L22.33 6.92L22.33 6.92Q21.92 7.63 21.92 8.51L21.92 8.51L21.92 8.51Q21.92 9.39 22.33 10.11L22.33 10.11L22.33 10.11Q22.74 10.82 23.44 11.23L23.44 11.23L23.44 11.23Q24.14 11.63 25.00 11.63L25.00 11.63L25.00 11.63Q25.87 11.63 26.57 11.23L26.57 11.23L26.57 11.23Q27.27 10.82 27.67 10.11L27.67 10.11L27.67 10.11Q28.07 9.39 28.07 8.51L28.07 8.51L28.07 8.51Q28.07 7.63 27.67 6.92L27.67 6.92L27.67 6.92Q27.27 6.20 26.57 5.79L26.57 5.79L26.57 5.79Q25.87 5.38 25.00 5.38L25.00 5.38ZM36.79 11.72L36.79 11.72Q36.89 11.83 36.89 11.97L36.89 11.97L36.89 11.97Q36.89 12.12 36.74 12.26L36.74 12.26L36.74 12.26Q36.60 12.38 36.48 12.38L36.48 12.38L36.48 12.38Q36.32 12.38 36.19 12.21L36.19 12.21L33.15 8.50L31.85 9.69L31.85 11.91L31.85 11.91Q31.85 12.10 31.74 12.21L31.74 12.21L31.74 12.21Q31.63 12.33 31.43 12.33L31.43 12.33L31.43 12.33Q31.25 12.33 31.13 12.21L31.13 12.21L31.13 12.21Q31.01 12.10 31.01 11.91L31.01 11.91L31.01 1.82L31.01 1.82Q31.01 1.62 31.13 1.51L31.13 1.51L31.13 1.51Q31.25 1.40 31.43 1.40L31.43 1.40L31.43 1.40Q31.63 1.40 31.74 1.51L31.74 1.51L31.74 1.51Q31.85 1.62 31.85 1.82L31.85 1.82L31.85 8.67L36.19 4.72L36.19 4.72Q36.33 4.61 36.46 4.61L36.46 4.61L36.46 4.61Q36.60 4.61 36.72 4.75L36.72 4.75L36.72 4.75Q36.85 4.87 36.85 5.01L36.85 5.01L36.85 5.01Q36.85 5.15 36.71 5.28L36.71 5.28L33.74 7.98L36.79 11.72ZM43.29 1.82L43.29 1.82Q43.29 1.64 43.41 1.52L43.41 1.52L43.41 1.52Q43.53 1.40 43.71 1.40L43.71 1.40L43.71 1.40Q43.89 1.40 44.01 1.52L44.01 1.52L44.01 1.52Q44.13 1.64 44.13 1.82L44.13 1.82L44.13 11.91L44.13 11.91Q44.13 12.10 44.01 12.21L44.01 12.21L44.01 12.21Q43.89 12.33 43.71 12.33L43.71 12.33L43.71 12.33Q43.53 12.33 43.41 12.21L43.41 12.21L43.41 12.21Q43.29 12.10 43.29 11.91L43.29 11.91L43.29 1.82ZM50.25 11.48L50.25 11.48Q50.44 11.48 50.56 11.60L50.56 11.60L50.56 11.60Q50.68 11.72 50.68 11.91L50.68 11.91L50.68 11.91Q50.68 12.10 50.56 12.21L50.56 12.21L50.56 12.21Q50.44 12.33 50.25 12.33L50.25 12.33L49.92 12.33L49.92 12.33Q49.15 12.33 48.55 11.98L48.55 11.98L48.55 11.98Q47.95 11.63 47.61 11.03L47.61 11.03L47.61 11.03Q47.28 10.42 47.28 9.65L47.28 9.65L47.28 5.71L46.19 5.71L46.19 5.71Q46.02 5.71 45.91 5.61L45.91 5.61L45.91 5.61Q45.81 5.50 45.81 5.33L45.81 5.33L45.81 5.33Q45.81 5.17 45.91 5.06L45.91 5.06L45.91 5.06Q46.02 4.96 46.19 4.96L46.19 4.96L47.28 4.96L47.28 2.67L47.28 2.67Q47.28 2.48 47.40 2.36L47.40 2.36L47.40 2.36Q47.52 2.24 47.70 2.24L47.70 2.24L47.70 2.24Q47.89 2.24 48.01 2.36L48.01 2.36L48.01 2.36Q48.13 2.48 48.13 2.67L48.13 2.67L48.13 4.96L49.98 4.96L49.98 4.96Q50.15 4.96 50.25 5.06L50.25 5.06L50.25 5.06Q50.36 5.17 50.36 5.33L50.36 5.33L50.36 5.33Q50.36 5.50 50.25 5.61L50.25 5.61L50.25 5.61Q50.15 5.71 49.98 5.71L49.98 5.71L48.13 5.71L48.13 9.65L48.13 9.65Q48.13 10.46 48.64 10.97L48.64 10.97L48.64 10.97Q49.14 11.48 49.94 11.48L49.94 11.48L50.25 11.48ZM60.52 1.40L60.52 1.40Q61.29 1.40 61.95 1.74L61.95 1.74L61.95 1.74Q62.61 2.09 62.99 2.69L62.99 2.69L62.99 2.69Q63.38 3.29 63.38 4.05L63.38 4.05L63.38 4.05Q63.38 4.83 62.96 5.45L62.96 5.45L62.96 5.45Q62.54 6.08 61.84 6.38L61.84 6.38L61.84 6.38Q62.82 6.65 63.39 7.37L63.39 7.37L63.39 7.37Q63.95 8.09 63.95 9.16L63.95 9.16L63.95 9.16Q63.95 10.08 63.54 10.80L63.54 10.80L63.54 10.80Q63.13 11.52 62.39 11.93L62.39 11.93L62.39 11.93Q61.66 12.33 60.73 12.33L60.73 12.33L57.22 12.33L57.22 12.33Q56.97 12.33 56.82 12.23L56.82 12.23L56.82 12.23Q56.67 12.12 56.67 11.91L56.67 11.91L56.67 1.82L56.67 1.82Q56.67 1.62 56.79 1.51L56.79 1.51L56.79 1.51Q56.91 1.40 57.09 1.40L57.09 1.40L60.52 1.40ZM60.52 6.02L60.52 6.02Q61.42 6.02 61.98 5.47L61.98 5.47L61.98 5.47Q62.54 4.93 62.54 4.05L62.54 4.05L62.54 4.05Q62.54 3.19 61.99 2.72L61.99 2.72L61.99 2.72Q61.43 2.24 60.52 2.24L60.52 2.24L57.51 2.24L57.51 6.02L60.52 6.02ZM60.73 11.49L60.73 11.49Q61.42 11.49 61.96 11.19L61.96 11.19L61.96 11.19Q62.50 10.89 62.80 10.36L62.80 10.36L62.80 10.36Q63.11 9.83 63.11 9.16L63.11 9.16L63.11 9.16Q63.11 8.50 62.80 7.97L62.80 7.97L62.80 7.97Q62.50 7.45 61.96 7.15L61.96 7.15L61.96 7.15Q61.42 6.86 60.73 6.86L60.73 6.86L57.51 6.86L57.51 11.49L60.73 11.49ZM69.16 4.61L69.16 4.61Q70.18 4.61 70.99 5.09L70.99 5.09L70.99 5.09Q71.79 5.57 72.24 6.43L72.24 6.43L72.24 6.43Q72.69 7.28 72.69 8.37L72.69 8.37L72.69 8.37Q72.69 8.55 72.58 8.66L72.58 8.66L72.58 8.66Q72.46 8.76 72.28 8.76L72.28 8.76L66.42 8.76L66.42 8.76Q66.46 9.59 66.85 10.24L66.85 10.24L66.85 10.24Q67.24 10.89 67.90 11.26L67.90 11.26L67.90 11.26Q68.56 11.62 69.37 11.62L69.37 11.62L69.37 11.62Q69.92 11.62 70.47 11.43L70.47 11.43L70.47 11.43Q71.02 11.24 71.34 10.93L71.34 10.93L71.34 10.93Q71.48 10.82 71.64 10.82L71.64 10.82L71.64 10.82Q71.79 10.82 71.89 10.91L71.89 10.91L71.89 10.91Q72.04 11.03 72.04 11.20L72.04 11.20L72.04 11.20Q72.04 11.34 71.92 11.47L71.92 11.47L71.92 11.47Q71.47 11.87 70.75 12.14L70.75 12.14L70.75 12.14Q70.03 12.40 69.37 12.40L69.37 12.40L69.37 12.40Q68.26 12.40 67.40 11.91L67.40 11.91L67.40 11.91Q66.54 11.41 66.05 10.52L66.05 10.52L66.05 10.52Q65.56 9.63 65.56 8.51L65.56 8.51L65.56 8.51Q65.56 7.38 66.02 6.49L66.02 6.49L66.02 6.49Q66.47 5.60 67.29 5.10L67.29 5.10L67.29 5.10Q68.11 4.61 69.16 4.61L69.16 4.61ZM69.16 5.39L69.16 5.39Q68.07 5.39 67.32 6.12L67.32 6.12L67.32 6.12Q66.57 6.85 66.43 8.04L66.43 8.04L71.88 8.04L71.88 8.04Q71.78 6.85 71.04 6.12L71.04 6.12L71.04 6.12Q70.29 5.39 69.16 5.39L69.16 5.39ZM77.13 4.59L77.13 4.59Q78.89 4.59 79.80 5.85L79.80 5.85L79.80 5.85Q79.88 5.95 79.88 6.09L79.88 6.09L79.88 6.09Q79.88 6.29 79.66 6.41L79.66 6.41L79.66 6.41Q79.52 6.47 79.45 6.47L79.45 6.47L79.45 6.47Q79.24 6.47 79.10 6.29L79.10 6.29L79.10 6.29Q78.39 5.38 77.10 5.38L77.10 5.38L77.10 5.38Q76.24 5.38 75.74 5.75L75.74 5.75L75.74 5.75Q75.24 6.12 75.24 6.66L75.24 6.66L75.24 6.66Q75.24 7.22 75.72 7.56L75.72 7.56L75.72 7.56Q76.20 7.90 77.34 8.06L77.34 8.06L77.34 8.06Q78.82 8.27 79.47 8.86L79.47 8.86L79.47 8.86Q80.12 9.44 80.12 10.26L80.12 10.26L80.12 10.26Q80.12 10.91 79.71 11.40L79.71 11.40L79.71 11.40Q79.30 11.89 78.61 12.15L78.61 12.15L78.61 12.15Q77.92 12.42 77.11 12.42L77.11 12.42L77.11 12.42Q76.30 12.42 75.53 12.13L75.53 12.13L75.53 12.13Q74.76 11.84 74.26 11.26L74.26 11.26L74.26 11.26Q74.16 11.14 74.16 11.00L74.16 11.00L74.16 11.00Q74.16 10.81 74.34 10.68L74.34 10.68L74.34 10.68Q74.42 10.61 74.58 10.61L74.58 10.61L74.58 10.61Q74.77 10.61 74.90 10.77L74.90 10.77L74.90 10.77Q75.60 11.62 77.15 11.62L77.15 11.62L77.15 11.62Q78.26 11.62 78.79 11.23L78.79 11.23L78.79 11.23Q79.31 10.84 79.31 10.22L79.31 10.22L79.31 10.22Q79.31 9.11 77.17 8.81L77.17 8.81L77.17 8.81Q75.81 8.61 75.12 8.06L75.12 8.06L75.12 8.06Q74.42 7.52 74.42 6.75L74.42 6.75L74.42 6.75Q74.42 5.73 75.17 5.16L75.17 5.16L75.17 5.16Q75.92 4.59 77.13 4.59L77.13 4.59ZM85.47 11.48L85.47 11.48Q85.67 11.48 85.79 11.60L85.79 11.60L85.79 11.60Q85.90 11.72 85.90 11.91L85.90 11.91L85.90 11.91Q85.90 12.10 85.79 12.21L85.79 12.21L85.79 12.21Q85.67 12.33 85.47 12.33L85.47 12.33L85.15 12.33L85.15 12.33Q84.38 12.33 83.78 11.98L83.78 11.98L83.78 11.98Q83.17 11.63 82.84 11.03L82.84 11.03L82.84 11.03Q82.50 10.42 82.50 9.65L82.50 9.65L82.50 5.71L81.41 5.71L81.41 5.71Q81.24 5.71 81.14 5.61L81.14 5.61L81.14 5.61Q81.03 5.50 81.03 5.33L81.03 5.33L81.03 5.33Q81.03 5.17 81.14 5.06L81.14 5.06L81.14 5.06Q81.24 4.96 81.41 4.96L81.41 4.96L82.50 4.96L82.50 2.67L82.50 2.67Q82.50 2.48 82.62 2.36L82.62 2.36L82.62 2.36Q82.74 2.24 82.92 2.24L82.92 2.24L82.92 2.24Q83.12 2.24 83.24 2.36L83.24 2.36L83.24 2.36Q83.36 2.48 83.36 2.67L83.36 2.67L83.36 4.96L85.20 4.96L85.20 4.96Q85.37 4.96 85.48 5.06L85.48 5.06L85.48 5.06Q85.58 5.17 85.58 5.33L85.58 5.33L85.58 5.33Q85.58 5.50 85.48 5.61L85.48 5.61L85.48 5.61Q85.37 5.71 85.20 5.71L85.20 5.71L83.36 5.71L83.36 9.65L83.36 9.65Q83.36 10.46 83.86 10.97L83.86 10.97L83.86 10.97Q84.36 11.48 85.16 11.48L85.16 11.48L85.47 11.48Z"></path>
    </g>
    <defs data-v-fde0c5aa=""><!----></defs>
    <g data-v-fde0c5aa="" id="4beed549-f15f-4d5e-ae5a-51d50ed3a166" stroke="none" fill="#F1CC07"
       transform="matrix(0.517578661441803,0,0,0.517578661441803,33.00440430808118,124.29918842033342)">
        <path d="M19.847 63.395a8.189 8.189 0 0 0 .615.414c.143.09.288.178.437.261.062.033.125.064.189.099a8.792 8.792 0 0 0 1.572.631c.069.02.135.045.205.063l.003-.005c1.792.477 3.896.422 6.37-.476 1.773-.643 2.754-1.986 3.286-3.444l.016-.044a8.35 8.35 0 0 0 .295-1.018c.416.066.856.115 1.346.115.658 0 1.39-.083 2.178-.257.105.902.077 2.593.103 4.138.011.66.606 1.013 1.24 1.022a.933.933 0 0 0 .184-.012c.548-.084 1.036-.578 1.071-1.173.438-7.402-1.415-8.561-1.719-8.817a1.375 1.375 0 0 0-1.093-.306 1.243 1.243 0 0 0-.646.3c-.48.432-.437 1.114-.121 1.688.075.136.194.302.408.847-1.103.243-1.946.217-2.677.097a16.98 16.98 0 0 0 0-.553v-.011a14.356 14.356 0 0 0-.055-1.005l-.003-.027a9.842 9.842 0 0 0-.044-.399l-.002-.019-.013-.088-.002-.019-.005-.029-.003-.031-.003-.018a.93.93 0 0 0-.021-.131 3.554 3.554 0 0 0-.034-.165l-.006-.024a5.812 5.812 0 0 0-.061-.223l-.015-.048a4.26 4.26 0 0 0-.228-.572l-.027-.056a4.234 4.234 0 0 0-.175-.317l-.029-.046a4.843 4.843 0 0 0-.24-.349 4.532 4.532 0 0 0-.278-.325L31.804 53a4.009 4.009 0 0 0-.348-.321l-.011-.01a4.69 4.69 0 0 0-.401-.289l-.088-.058a4.725 4.725 0 0 0-.475-.26l-.095-.043a5.608 5.608 0 0 0-.596-.232 6.79 6.79 0 0 0-.635-.17c-.051-.01-.103-.021-.155-.029a8.048 8.048 0 0 0-.737-.113c-.021-.002-.043-.002-.064-.003a10.203 10.203 0 0 0-.785-.036c-.039-.002-.072-.006-.111-.006-.024 0-.054.004-.079.004-.289.002-.591.014-.91.039-.063.007-.129.015-.193.02-.293.029-.6.066-.92.117l-.178.026c-.358.06-.736.137-1.127.226l-.277.065c-.411.1-.834.21-1.282.344a11.75 11.75 0 0 1-.918.232c-.104.022-.205.037-.309.058-.2.038-.401.074-.598.103-.118.016-.234.029-.352.042-.181.021-.361.039-.539.051-.118.01-.235.018-.351.022-.176.011-.349.015-.521.017-.125.002-.25.005-.373.004l-.167-.003a17.266 17.266 0 0 1-.571-.022l-.088-.004a18.814 18.814 0 0 1-.623-.054l-.129-.013c-.165-.02-.325-.039-.48-.061l-.121-.018a15.205 15.205 0 0 1-.532-.087c-.019-.002-.035-.007-.053-.01a26.08 26.08 0 0 1-.544-.107 36.963 36.963 0 0 1-.391-.091c-.008-.002-.017-.006-.025-.007a13.797 13.797 0 0 1-.361-.094l-.075-.021c-.085-.022-.164-.047-.235-.067l-.054-.016c-.08-.024-.15-.047-.208-.066l-.035-.01-.104-.036-.031-.011-.033-.012.007.037.007.035.016.075.018.086.02.09.03.135.022.094c.028.121.062.256.101.411l.017.062.067.256.031.115.082.294.032.109c.033.113.066.226.104.345l.008.028c.125.406.274.855.448 1.333l.029.077c.054.148.111.299.171.452l.035.09c.264.672.577 1.384.943 2.102l.029.058c.086.167.175.335.268.501l.052.094c.095.171.192.34.293.51l.004.006a16.898 16.898 0 0 0 1.121 1.651c.116.148.235.296.356.441l.098.114c.123.144.249.286.378.424l.065.066c.414.438.862.843 1.342 1.208.047.036.091.073.137.106z"></path>
        <path d="M44.517 58.801c-1.184.039-2.608 1.454-2.432 2.961.218 1.879-.135 3.254-.709 3.841 1.476.14 2.29-1.334 2.298-1.346.372-.77 1.142-1.258 1.852-.771.472.322 1.608 1.158.375 2.616-.189.225-2.681 3.171-7.739 2.843-4.222-.275-4.426-2.037-4.78-2.487-.783.899-1.802 1.273-3.121 1.751-1.667.604-3.445.661-4.987.661-1.247 0-3.464-.571-4.411-1.307-4.492 5.143.263 15.409 2.125 18.589 4.623 7.889 10.197 9.011 13.23 7.403 1.749-.926 2.354-.217 3.694.092 12.241 2.814 17.499-12.395 18.147-20.596.31-3.963-1.284-15.863-13.542-14.25z"></path>
        <g>
            <path d="M72.604 15.464c.016-.595.031-1 .053-1.588-1.078.129-2.861.302-3.572.302-.582 0-1.896-.119-2.945-.231.17 4.755.197 7.595-.061 12.365-.021.385-.041 1.396-.062 1.789h6.764c-.125-1.865-.182-4.36-.211-6.222-.049-2.762-.033-3.655.034-6.415z"></path>
            <path d="M65.514 13.876l.625.071-.004-.069-.621-.002z"></path>
            <path d="M65.514 13.876l.625.071-.004-.069-.621-.002zM62.062 72.267a35.61 35.61 0 0 1-.227 2.043h18.533V52.102h-21.85c-.189-.251-.059 5.094-.096 7.74 3.31 3.982 3.857 9.665 3.64 12.425zM72.604 15.464c.016-.595.031-1 .053-1.588-1.078.129-2.861.302-3.572.302-.582 0-1.896-.119-2.945-.231.17 4.755.197 7.595-.061 12.365-.021.385-.041 1.396-.062 1.789h6.764c-.125-1.865-.182-4.36-.211-6.222-.049-2.762-.033-3.655.034-6.415z"></path>
            <path d="M76.426 35.443c-.479-.321-.713-1.357-.865-1.956-.324-1.282-.479-2.61-.607-3.926-.322-3.27-.391-6.566-.408-9.85-.01-2.436.02-3.004.09-5.438.008-.206.014-.416.023-.624h-.002c.014-.042.041-.116.092-.22.184-.371.365-.751.506-1.145.355-.99 1.076-1.912.734-2.922-.143-.422-1.143-3.048-1.662-3.445-.329-.251-3.499-.919-5.227-.917-1.732-.002-4.305.666-4.633.918-.518.396-1.518 3.022-1.66 3.445-.346 1.011.375 1.932.734 2.922.139.394.32.773.506 1.145.053.104.078.179.092.22l.012.335c.027.883.049 1.767.066 2.651.055 3.042.055 4.218-.039 7.26-.092 3.017-.207 6.098-.822 9.063-.16.765-.336 1.765-.861 2.369-.344.393-1.104.787-1.578 1.174-.928.752-1.742 1.638-2.469 2.58-1.449 1.867-2.441 2.801-2.654 6.41v12.009a11.616 11.616 0 0 1 2.629 2.341c.037-2.646-.094-7.991.096-7.74h21.852V74.31H61.836c-.639 4.578-2.295 10.295-5.174 14.934.02.06.041.12.068.179.32.718.908 1.991 1.471 2.546.594.578 1.256.787 2.02 1.052 1.729.6 3.488.956 5.311 1.119 4.312.383 9.344.192 13.445-1.259.732-.256 1.188-.486 1.752-1.045.598-.585 1.16-1.386 1.48-2.145.539-1.297.791-2.546.791-2.689V44.891c-.479-5.105-3.359-7.404-6.574-9.448zm-10.41-7.342c.021-.393.041-1.403.062-1.789.258-4.771.23-7.61.061-12.365a46.297 46.297 0 0 1-.625-.071l.621.002.004.069c1.049.112 2.363.231 2.945.231.711 0 2.494-.173 3.572-.302-.021.588-.037.993-.053 1.588-.066 2.76-.082 3.653-.035 6.415.029 1.862.086 4.357.211 6.222h-6.763zM72.656 13.876z"></path>
        </g>
    </g>
    <defs data-v-fde0c5aa=""><!----></defs>
    <g data-v-fde0c5aa="" id="94d77bcb-6379-46ed-845a-d3c542a278d1" fill="#FFFFFF"
       transform="matrix(0.3545387387275696,0,0,0.3545387387275696,88.9279792222235,160.24223387404118)">
        <path d="M0.10 3.51C0.10 3.75 0.21 3.77 0.38 3.77L0.88 3.77C0.97 3.77 3.11 10.99 3.14 11.07C3.49 12.14 3.60 12.99 3.91 12.99C4.13 12.99 4.23 12.67 4.51 12.26C4.66 12.05 4.76 12.01 4.90 11.66L6.89 6.45C6.96 6.29 6.99 6.20 7.01 6.20C7.04 6.20 7.07 6.29 7.11 6.45C7.71 8.51 8.39 11.03 8.40 11.07C8.75 12.14 8.86 12.99 9.17 12.99C9.39 12.99 9.49 12.67 9.77 12.26C9.93 12.05 10.02 12.01 10.16 11.66L13.26 4.06C13.36 3.81 13.36 3.77 13.72 3.77C13.96 3.77 14.01 3.71 14.01 3.53C14.01 3.32 13.97 3.26 13.78 3.26C13.64 3.26 13.33 3.30 12.82 3.30C12.08 3.30 11.58 3.26 11.38 3.26C11.20 3.26 11.10 3.28 11.10 3.51C11.10 3.75 11.21 3.77 11.38 3.77L12.29 3.77C12.36 3.77 12.38 3.81 12.38 3.95C12.38 4.63 10.78 8.72 10.07 10.63C9.93 10.99 9.86 11.17 9.81 11.17C9.76 11.17 9.70 10.99 9.58 10.60C9.49 10.30 8.57 7.18 8.04 5.22C7.99 5.05 7.78 4.17 7.78 3.85C7.78 3.81 7.78 3.79 7.80 3.77L8.68 3.77C8.86 3.77 8.96 3.75 8.96 3.56C8.96 3.32 8.92 3.26 8.72 3.26C8.40 3.26 7.46 3.30 7.04 3.30C6.62 3.30 5.71 3.26 5.49 3.26C5.31 3.26 5.21 3.28 5.21 3.51C5.21 3.75 5.32 3.77 5.49 3.77L6.29 3.77C6.33 3.77 6.51 4.27 6.66 4.83C6.72 5.05 6.76 5.15 6.76 5.25C6.76 5.31 6.76 5.38 6.72 5.49L4.72 10.60C4.62 10.82 4.59 10.95 4.55 10.95C4.51 10.95 4.48 10.84 4.40 10.60C4.31 10.32 3.30 7.27 2.70 5.22C2.66 5.08 2.34 3.96 2.32 3.85C2.34 3.77 2.38 3.77 2.42 3.77L3.12 3.77C3.35 3.77 3.42 3.75 3.42 3.56C3.42 3.32 3.37 3.26 3.18 3.26C2.86 3.26 2.14 3.30 1.72 3.30C1.30 3.30 0.60 3.26 0.38 3.26C0.20 3.26 0.10 3.28 0.10 3.51ZM21.63 12.39C21.63 12.63 21.63 12.68 21.83 12.68C22.15 12.68 23.09 12.64 23.51 12.64C23.93 12.64 24.75 12.68 25.07 12.68C25.24 12.68 25.24 12.61 25.24 12.40C25.24 12.24 25.24 12.18 25.07 12.18L24.15 12.18C24.07 12.18 24.02 9.93 24.02 8.20C24.02 8.01 24.02 8.01 24.15 8.01L29.39 8.01C29.46 8.01 29.47 8.01 29.47 8.18L29.47 9.91C29.47 11.05 29.46 12.18 29.40 12.18L28.63 12.18C28.41 12.18 28.36 12.19 28.36 12.39C28.36 12.63 28.38 12.68 28.57 12.68C28.90 12.68 29.74 12.64 30.16 12.64C30.58 12.64 31.16 12.68 31.49 12.68C31.65 12.68 31.67 12.61 31.67 12.40C31.67 12.24 31.65 12.18 31.49 12.18L30.74 12.18C30.70 12.18 30.69 9.27 30.69 7.04C30.69 5.40 30.69 3.70 30.73 3.70L31.35 3.70C31.57 3.70 31.61 3.68 31.61 3.49C31.61 3.25 31.60 3.19 31.40 3.19C31.26 3.19 30.63 3.23 30.04 3.23C29.37 3.23 28.77 3.19 28.55 3.19C28.35 3.19 28.32 3.22 28.32 3.44C28.32 3.67 28.39 3.70 28.56 3.70L29.36 3.70C29.41 3.70 29.47 4.79 29.47 5.71L29.47 7.42C29.47 7.59 29.47 7.59 29.30 7.59L24.19 7.59C24.02 7.59 24.02 7.59 24.02 7.38C24.02 6.96 24.01 6.23 24.01 5.53C24.01 4.66 24.02 3.70 24.08 3.70L24.85 3.70C25.07 3.70 25.12 3.68 25.12 3.49C25.12 3.25 25.10 3.19 24.91 3.19C24.58 3.19 24.00 3.23 23.39 3.23C22.81 3.23 22.32 3.19 22.09 3.19C21.91 3.19 21.81 3.21 21.81 3.44C21.81 3.68 21.92 3.70 22.09 3.70L22.71 3.70C22.76 3.70 22.78 5.59 22.78 7.18L22.78 8.61C22.78 10.08 22.76 12.18 22.69 12.18L21.88 12.18C21.66 12.18 21.63 12.19 21.63 12.39ZM39.70 12.39C39.70 12.63 39.73 12.68 39.93 12.68C40.25 12.68 41.22 12.64 41.64 12.64C42.06 12.64 46.56 12.68 46.89 12.68C47.01 12.68 47.17 12.66 47.17 12.49C47.17 12.07 47.21 11.23 47.21 10.53C47.21 10.39 47.05 10.39 46.93 10.39C46.82 10.39 46.69 10.39 46.69 10.51C46.68 11.06 46.68 11.41 46.65 11.76C46.62 12.01 46.62 12.04 46.52 12.04C46.37 12.04 43.74 12.08 42.24 12.08C42.17 12.08 42.13 10.11 42.08 8.26C42.08 8.06 42.13 8.09 42.27 8.09L44.55 8.09C45.25 8.09 45.28 8.20 45.28 8.30L45.28 9.00C45.28 9.14 45.46 9.14 45.57 9.14C45.67 9.14 45.79 9.13 45.79 9.02C45.79 8.83 45.77 8.33 45.77 7.83C45.77 7.32 45.79 6.83 45.79 6.71C45.79 6.59 45.65 6.58 45.56 6.58C45.44 6.58 45.28 6.59 45.28 6.72L45.28 7.45C45.28 7.62 44.83 7.63 44.55 7.63L42.21 7.63C42.10 7.63 42.08 7.63 42.08 7.45C42.07 6.75 42.06 6.06 42.06 5.46C42.06 5.12 42.06 3.71 42.14 3.71C43.37 3.71 45.88 3.75 45.88 3.81C45.88 3.99 45.84 4.83 45.84 4.89C45.84 5.04 45.91 5.10 46.09 5.10C46.28 5.10 46.35 5.08 46.35 4.94C46.35 3.85 46.41 3.36 46.41 3.09C46.41 2.91 46.33 2.90 46.13 2.90C45.93 2.90 45.93 2.95 45.91 3.11C45.89 3.25 45.96 3.25 45.05 3.25C44.44 3.25 42.29 3.29 41.52 3.29C41.03 3.29 40.10 3.25 40.00 3.25C39.87 3.25 39.82 3.30 39.82 3.49C39.82 3.72 39.89 3.74 40.05 3.74L40.71 3.74C40.77 3.74 40.84 4.79 40.84 5.71C40.84 5.80 40.89 8.27 40.89 9.83L40.89 11.17C40.89 11.84 40.87 12.18 40.84 12.18L39.98 12.18C39.76 12.18 39.70 12.21 39.70 12.39ZM55.17 3.51C55.17 3.72 55.24 3.79 55.44 3.79L56.25 3.77C56.35 3.77 56.39 6.61 56.39 8.55L56.39 10.42C56.39 11.30 56.38 12.18 56.34 12.18L55.73 12.18C55.51 12.18 55.44 12.19 55.44 12.39C55.44 12.63 55.48 12.68 55.68 12.68C55.80 12.68 56.63 12.64 57.05 12.64C57.47 12.64 58.24 12.68 58.56 12.68C58.73 12.68 58.76 12.61 58.76 12.40C58.76 12.24 58.73 12.18 58.56 12.18L57.75 12.18C57.68 12.18 57.60 9.18 57.60 8.37C57.60 8.30 57.60 8.26 57.71 8.26C58.10 8.26 58.70 8.27 59.00 8.27C61.24 8.32 61.38 10.00 61.38 11.68L61.38 12.49C61.38 12.61 61.43 12.64 61.53 12.64C61.53 12.64 62.97 12.68 63.45 12.68C63.62 12.68 63.67 12.64 63.67 12.53C63.67 12.24 63.62 12.18 63.46 12.18L62.82 12.18C62.72 12.18 62.69 12.14 62.66 11.31C62.58 8.99 61.21 8.34 60.30 8.05C60.16 8.01 60.19 8.01 60.30 7.95C60.89 7.69 62.20 6.94 62.20 5.63C62.20 3.63 60.51 3.21 59.11 3.21C58.79 3.21 57.50 3.29 57.08 3.29C56.66 3.29 55.68 3.26 55.45 3.26C55.27 3.26 55.17 3.28 55.17 3.51ZM57.60 7.80L57.60 4.40C57.60 4.05 57.62 3.68 57.67 3.68C57.88 3.65 58.16 3.65 58.38 3.65C59.68 3.65 60.93 4.47 60.93 5.82C60.93 6.99 60.38 7.57 59.72 7.88C59.68 7.90 59.64 7.90 59.57 7.90C59.09 7.88 58.38 7.88 57.78 7.87C57.61 7.87 57.60 7.85 57.60 7.80ZM71.15 12.39C71.15 12.63 71.18 12.68 71.37 12.68C71.69 12.68 72.66 12.64 73.08 12.64C73.50 12.64 78.01 12.68 78.33 12.68C78.46 12.68 78.61 12.66 78.61 12.49C78.61 12.07 78.65 11.23 78.65 10.53C78.65 10.39 78.50 10.39 78.37 10.39C78.26 10.39 78.13 10.39 78.13 10.51C78.12 11.06 78.12 11.41 78.09 11.76C78.06 12.01 78.06 12.04 77.97 12.04C77.81 12.04 75.18 12.08 73.68 12.08C73.61 12.08 73.57 10.11 73.53 8.26C73.53 8.06 73.57 8.09 73.71 8.09L75.99 8.09C76.69 8.09 76.72 8.20 76.72 8.30L76.72 9.00C76.72 9.14 76.90 9.14 77.01 9.14C77.11 9.14 77.24 9.13 77.24 9.02C77.24 8.83 77.21 8.33 77.21 7.83C77.21 7.32 77.24 6.83 77.24 6.71C77.24 6.59 77.10 6.58 77 6.58C76.89 6.58 76.72 6.59 76.72 6.72L76.72 7.45C76.72 7.62 76.27 7.63 75.99 7.63L73.65 7.63C73.54 7.63 73.53 7.63 73.53 7.45C73.51 6.75 73.50 6.06 73.50 5.46C73.50 5.12 73.50 3.71 73.58 3.71C74.82 3.71 77.32 3.75 77.32 3.81C77.32 3.99 77.28 4.83 77.28 4.89C77.28 5.04 77.35 5.10 77.53 5.10C77.73 5.10 77.80 5.08 77.80 4.94C77.80 3.85 77.85 3.36 77.85 3.09C77.85 2.91 77.77 2.90 77.57 2.90C77.38 2.90 77.38 2.95 77.35 3.11C77.34 3.25 77.41 3.25 76.50 3.25C75.88 3.25 73.74 3.29 72.97 3.29C72.48 3.29 71.54 3.25 71.44 3.25C71.32 3.25 71.26 3.30 71.26 3.49C71.26 3.72 71.33 3.74 71.50 3.74L72.16 3.74C72.21 3.74 72.28 4.79 72.28 5.71C72.28 5.80 72.34 8.27 72.34 9.83L72.34 11.17C72.34 11.84 72.31 12.18 72.28 12.18L71.43 12.18C71.20 12.18 71.15 12.21 71.15 12.39ZM96.00 3.44C96.00 3.68 96.08 3.70 96.25 3.70L96.66 3.70C96.78 3.70 99.04 7.74 99.44 8.50C99.50 8.60 99.54 8.65 99.54 8.81C99.54 10.50 99.53 12.18 99.40 12.18L98.69 12.18C98.46 12.18 98.42 12.19 98.42 12.39C98.42 12.63 98.43 12.68 98.63 12.68C98.83 12.68 99.64 12.64 100.23 12.64C101.05 12.64 101.58 12.68 101.91 12.68C102.07 12.68 102.10 12.61 102.10 12.40C102.10 12.24 102.07 12.18 101.91 12.18L100.94 12.18C100.84 12.18 100.81 9.72 100.81 8.22C100.81 8.18 100.81 8.15 100.86 8.09C101.40 7.22 103.35 3.70 103.42 3.70L103.89 3.70C104.06 3.70 104.16 3.68 104.16 3.44C104.16 3.22 104.08 3.19 103.89 3.19C103.67 3.19 103.43 3.23 102.83 3.23C102.24 3.23 101.91 3.19 101.74 3.19C101.54 3.19 101.50 3.25 101.50 3.49C101.50 3.68 101.57 3.70 101.79 3.70L102.52 3.70C102.54 3.70 102.55 3.71 102.55 3.74C102.55 4.05 100.98 6.99 100.60 7.71C100.49 7.92 100.49 7.88 100.38 7.67C99.97 6.89 98.69 4.56 98.39 3.85C98.34 3.71 98.32 3.70 98.50 3.70L99.33 3.70C99.55 3.70 99.58 3.68 99.58 3.49C99.58 3.25 99.54 3.19 99.39 3.19C99.15 3.19 98.53 3.23 97.73 3.23C96.92 3.23 96.43 3.19 96.25 3.19C96.07 3.19 96.00 3.21 96.00 3.44ZM111.29 8.15C111.29 11.17 113.62 12.80 115.88 12.80C118.66 12.80 120.64 10.89 120.64 8.06C120.64 5.33 118.89 3.11 116.09 3.11C113.48 3.11 111.29 5.10 111.29 8.15ZM112.69 7.77C112.69 5.64 113.97 3.58 115.95 3.58C118.19 3.58 119.27 5.81 119.27 7.94C119.27 10.08 118.16 12.32 115.89 12.32C113.90 12.32 112.69 10.28 112.69 7.77ZM128.74 3.51C128.74 3.75 128.83 3.77 129.00 3.77L129.53 3.77C129.58 3.77 129.58 4.12 129.58 4.55C129.58 5.66 129.57 8.96 129.57 9.42C129.57 11.13 129.82 12.80 132.68 12.80C133.76 12.80 134.92 12.38 135.58 12.00C135.83 11.86 136.12 11.72 136.21 11.72C136.47 11.72 136.74 12.74 137.07 12.74C137.40 12.74 137.41 12.35 137.41 12.25C137.41 11.96 137.47 10.08 137.51 8.16C137.56 6.12 137.55 3.77 137.66 3.77L137.98 3.77C138.21 3.77 138.28 3.75 138.28 3.56C138.28 3.32 138.24 3.26 138.04 3.26C137.90 3.26 137.37 3.30 136.95 3.30C136.53 3.30 135.73 3.26 135.51 3.26C135.32 3.26 135.23 3.28 135.23 3.51C135.23 3.75 135.34 3.77 135.51 3.77L136.21 3.77C136.28 3.77 136.29 4.30 136.29 4.87L136.29 9.14C136.29 11.19 136.29 11.12 135.95 11.34C135.56 11.61 134.75 12.08 133.57 12.08C131.60 12.08 130.80 11.17 130.80 9.41C130.80 8.82 130.87 3.77 130.98 3.77L131.89 3.77C132.12 3.77 132.16 3.75 132.16 3.56C132.16 3.32 132.15 3.26 131.95 3.26C131.63 3.26 130.75 3.30 130.33 3.30C129.91 3.30 129.22 3.26 129.00 3.26C128.81 3.26 128.74 3.28 128.74 3.51ZM146.31 3.51C146.31 3.72 146.38 3.79 146.58 3.79L147.39 3.77C147.49 3.77 147.53 6.61 147.53 8.55L147.53 10.42C147.53 11.30 147.52 12.18 147.48 12.18L146.87 12.18C146.65 12.18 146.58 12.19 146.58 12.39C146.58 12.63 146.62 12.68 146.82 12.68C146.94 12.68 147.77 12.64 148.19 12.64C148.61 12.64 149.38 12.68 149.70 12.68C149.87 12.68 149.90 12.61 149.90 12.40C149.90 12.24 149.87 12.18 149.70 12.18L148.89 12.18C148.82 12.18 148.74 9.18 148.74 8.37C148.74 8.30 148.74 8.26 148.85 8.26C149.24 8.26 149.84 8.27 150.14 8.27C152.38 8.32 152.52 10.00 152.52 11.68L152.52 12.49C152.52 12.61 152.57 12.64 152.67 12.64C152.67 12.64 154.11 12.68 154.59 12.68C154.76 12.68 154.81 12.64 154.81 12.53C154.81 12.24 154.76 12.18 154.60 12.18L153.96 12.18C153.86 12.18 153.83 12.14 153.80 11.31C153.72 8.99 152.35 8.34 151.44 8.05C151.30 8.01 151.33 8.01 151.44 7.95C152.03 7.69 153.34 6.94 153.34 5.63C153.34 3.63 151.65 3.21 150.25 3.21C149.93 3.21 148.64 3.29 148.22 3.29C147.80 3.29 146.82 3.26 146.59 3.26C146.41 3.26 146.31 3.28 146.31 3.51ZM148.74 7.80L148.74 4.40C148.74 4.05 148.76 3.68 148.81 3.68C149.02 3.65 149.30 3.65 149.52 3.65C150.82 3.65 152.07 4.47 152.07 5.82C152.07 6.99 151.52 7.57 150.86 7.88C150.82 7.90 150.78 7.90 150.71 7.90C150.23 7.88 149.52 7.88 148.92 7.87C148.75 7.87 148.74 7.85 148.74 7.80ZM172.09 3.51C172.09 3.75 172.17 3.79 172.34 3.79L173.19 3.77C173.25 3.77 173.31 5.52 173.31 7.11L173.31 11.63C173.31 11.93 173.29 12.18 173.26 12.18L172.54 12.18C172.31 12.18 172.24 12.19 172.24 12.39C172.24 12.63 172.27 12.68 172.47 12.68C172.59 12.68 173.54 12.64 173.96 12.64C174.15 12.64 174.66 12.67 175.31 12.67C176.86 12.67 179.27 12.43 179.27 10.23C179.27 8.27 177.45 7.94 176.76 7.84C176.68 7.83 176.67 7.83 176.67 7.81C176.67 7.80 176.71 7.78 176.78 7.76C177.42 7.52 178.86 6.90 178.86 5.54C178.86 3.81 177.39 3.25 175.71 3.25C175.14 3.25 174.54 3.29 173.99 3.29C173.57 3.29 172.56 3.26 172.34 3.26C172.16 3.26 172.09 3.28 172.09 3.51ZM174.54 8.19C174.54 8.12 174.54 8.08 174.65 8.08L175.13 8.08C175.74 8.08 176.39 8.09 176.76 8.22C177.63 8.51 177.95 9.16 177.95 10.14C177.95 11.17 177.49 12.18 175.48 12.18L174.64 12.18C174.55 12.18 174.54 9.02 174.54 8.19ZM174.54 7.59L174.54 6.92C174.54 5.87 174.55 3.71 174.59 3.68C174.65 3.65 174.96 3.63 175.17 3.63C176.58 3.63 177.60 4.41 177.60 5.77C177.60 6.92 176.88 7.46 176.25 7.66C176.16 7.69 176.06 7.70 175.98 7.70C175.90 7.70 175.76 7.69 175.52 7.69L174.72 7.69C174.54 7.69 174.54 7.67 174.54 7.59ZM187.38 3.51C187.38 3.72 187.45 3.79 187.64 3.79L188.45 3.77C188.55 3.77 188.59 6.61 188.59 8.55L188.59 10.42C188.59 11.30 188.58 12.18 188.54 12.18L187.94 12.18C187.71 12.18 187.64 12.19 187.64 12.39C187.64 12.63 187.68 12.68 187.88 12.68C188.01 12.68 188.83 12.64 189.25 12.64C189.67 12.64 190.44 12.68 190.76 12.68C190.93 12.68 190.96 12.61 190.96 12.40C190.96 12.24 190.93 12.18 190.76 12.18L189.95 12.18C189.88 12.18 189.80 9.18 189.80 8.37C189.80 8.30 189.80 8.26 189.91 8.26C190.30 8.26 190.90 8.27 191.20 8.27C193.44 8.32 193.58 10.00 193.58 11.68L193.58 12.49C193.58 12.61 193.63 12.64 193.73 12.64C193.73 12.64 195.17 12.68 195.65 12.68C195.82 12.68 195.87 12.64 195.87 12.53C195.87 12.24 195.82 12.18 195.66 12.18L195.02 12.18C194.92 12.18 194.89 12.14 194.87 11.31C194.78 8.99 193.41 8.34 192.50 8.05C192.36 8.01 192.39 8.01 192.50 7.95C193.09 7.69 194.40 6.94 194.40 5.63C194.40 3.63 192.71 3.21 191.31 3.21C190.99 3.21 189.70 3.29 189.28 3.29C188.86 3.29 187.88 3.26 187.66 3.26C187.47 3.26 187.38 3.28 187.38 3.51ZM189.80 7.80L189.80 4.40C189.80 4.05 189.83 3.68 189.87 3.68C190.08 3.65 190.36 3.65 190.58 3.65C191.88 3.65 193.13 4.47 193.13 5.82C193.13 6.99 192.58 7.57 191.93 7.88C191.88 7.90 191.84 7.90 191.77 7.90C191.30 7.88 190.58 7.88 189.98 7.87C189.81 7.87 189.80 7.85 189.80 7.80ZM203.21 12.39C203.21 12.63 203.21 12.68 203.41 12.68C203.57 12.68 203.90 12.64 204.47 12.64C205.09 12.64 205.63 12.68 205.79 12.68C205.95 12.68 205.95 12.61 205.95 12.40C205.95 12.24 205.95 12.18 205.79 12.18L204.71 12.18C204.71 12.18 204.69 12.18 204.69 12.17C204.71 11.87 205.48 9.90 205.83 9.02C205.90 8.83 205.91 8.79 206.12 8.79L208.95 8.79C209.09 8.79 209.09 8.81 209.16 9.03C209.43 9.77 210.14 11.89 210.14 12.17C210.14 12.18 210.13 12.18 210.13 12.18L209.36 12.18C209.13 12.18 209.12 12.19 209.12 12.39C209.12 12.63 209.13 12.68 209.30 12.68C209.62 12.68 210.49 12.64 210.91 12.64C211.33 12.64 212.00 12.68 212.21 12.68C212.35 12.68 212.37 12.61 212.37 12.40C212.37 12.24 212.35 12.18 212.21 12.18L211.72 12.18C211.62 12.18 210.60 9.34 210.04 7.78L208.36 3.07C208.35 3.00 208.28 2.94 208.19 2.94C208.07 2.94 207.97 3.16 207.89 3.35C207.73 3.71 207.49 3.84 207.38 4.13L205.90 7.57C205.72 8.01 204.01 12.18 203.88 12.18L203.46 12.18C203.24 12.18 203.21 12.19 203.21 12.39ZM206.11 8.33C206.11 8.30 206.14 8.23 206.18 8.13L207.55 4.77C207.59 4.66 207.62 4.61 207.65 4.61C207.66 4.61 207.68 4.63 207.72 4.77L208.88 8.18C208.91 8.25 208.92 8.29 208.92 8.32C208.92 8.36 208.89 8.37 208.80 8.37L206.29 8.37C206.11 8.37 206.11 8.34 206.11 8.33ZM219.98 12.39C219.98 12.63 220.02 12.68 220.22 12.68C220.54 12.68 221.30 12.64 222.01 12.64C222.67 12.64 223.47 12.68 223.69 12.68C223.86 12.68 223.89 12.61 223.89 12.40C223.89 12.24 223.86 12.18 223.69 12.18L222.73 12.18C222.63 12.18 222.60 9.55 222.60 7.76L222.60 5.87C222.60 5.14 222.63 3.70 222.73 3.70L223.64 3.70C223.86 3.70 223.89 3.68 223.89 3.49C223.89 3.25 223.86 3.19 223.69 3.19C223.37 3.19 222.70 3.23 222.04 3.23C221.23 3.23 220.51 3.19 220.29 3.19C220.11 3.19 220.04 3.21 220.04 3.44C220.04 3.68 220.12 3.70 220.29 3.70L221.21 3.70C221.26 3.70 221.33 4.79 221.33 5.71L221.33 7.08C221.33 8.92 221.31 12.18 221.20 12.18L220.28 12.18C220.05 12.18 219.98 12.19 219.98 12.39ZM231.78 12.39C231.78 12.63 231.80 12.68 231.99 12.68C232.18 12.68 232.55 12.64 233.17 12.64C233.80 12.64 234.36 12.68 234.68 12.68C234.85 12.68 234.85 12.61 234.85 12.40C234.85 12.24 234.85 12.18 234.68 12.18L233.48 12.18C233.44 12.18 233.42 11.54 233.42 10.79C233.42 9.46 233.44 7.48 233.44 5.99C233.44 5.25 233.44 4.84 233.45 4.28C233.45 4.02 233.52 4.14 233.65 4.28L240.53 12.66C240.62 12.75 240.70 12.89 240.81 12.89C240.93 12.89 241.00 12.77 241.00 12.54C241.00 12.39 241.16 6.65 241.18 4.48C241.18 4.06 241.21 3.70 241.23 3.70L241.86 3.70C242.09 3.70 242.14 3.68 242.14 3.49C242.14 3.25 242.14 3.19 241.95 3.19C241.75 3.19 241.32 3.23 240.76 3.23C240.14 3.23 239.34 3.19 239.25 3.19C239.08 3.19 239.08 3.26 239.08 3.47C239.08 3.64 239.08 3.70 239.25 3.70L240.55 3.70C240.56 3.70 240.56 4.33 240.56 4.44C240.56 5.85 240.59 8.33 240.59 9.70L240.59 10.29C240.59 10.57 240.58 10.65 240.35 10.37L234.67 3.39C234.56 3.25 234.53 3.19 234.36 3.19C234.28 3.19 233.90 3.23 233.59 3.23C233.30 3.23 232.22 3.19 232.02 3.19C231.85 3.19 231.83 3.26 231.83 3.47C231.83 3.64 231.85 3.70 232.02 3.70L232.93 3.70C232.93 4.17 232.89 8.53 232.82 10.79C232.79 11.69 232.81 12.18 232.69 12.18L232.05 12.18C231.83 12.18 231.78 12.19 231.78 12.39ZM259.98 12.39C259.98 12.63 259.99 12.68 260.19 12.68C260.37 12.68 260.75 12.64 261.37 12.64C262.00 12.64 262.56 12.68 262.88 12.68C263.05 12.68 263.05 12.61 263.05 12.40C263.05 12.24 263.05 12.18 262.88 12.18L261.67 12.18C261.63 12.18 261.62 11.54 261.62 10.79C261.62 9.46 261.63 7.48 261.63 5.99C261.63 5.25 261.63 4.84 261.65 4.28C261.65 4.02 261.72 4.14 261.84 4.28L268.73 12.66C268.81 12.75 268.90 12.89 269.01 12.89C269.12 12.89 269.19 12.77 269.19 12.54C269.19 12.39 269.36 6.65 269.37 4.48C269.37 4.06 269.40 3.70 269.43 3.70L270.06 3.70C270.28 3.70 270.34 3.68 270.34 3.49C270.34 3.25 270.34 3.19 270.14 3.19C269.95 3.19 269.51 3.23 268.95 3.23C268.34 3.23 267.54 3.19 267.44 3.19C267.27 3.19 267.27 3.26 267.27 3.47C267.27 3.64 267.27 3.70 267.44 3.70L268.74 3.70C268.76 3.70 268.76 4.33 268.76 4.44C268.76 5.85 268.79 8.33 268.79 9.70L268.79 10.29C268.79 10.57 268.77 10.65 268.55 10.37L262.86 3.39C262.75 3.25 262.72 3.19 262.56 3.19C262.47 3.19 262.09 3.23 261.79 3.23C261.49 3.23 260.41 3.19 260.22 3.19C260.05 3.19 260.02 3.26 260.02 3.47C260.02 3.64 260.05 3.70 260.22 3.70L261.13 3.70C261.13 4.17 261.09 8.53 261.02 10.79C260.99 11.69 261.00 12.18 260.89 12.18L260.25 12.18C260.02 12.18 259.98 12.19 259.98 12.39ZM278.38 12.39C278.38 12.63 278.40 12.68 278.60 12.68C278.92 12.68 279.89 12.64 280.31 12.64C280.73 12.64 285.24 12.68 285.56 12.68C285.68 12.68 285.84 12.66 285.84 12.49C285.84 12.07 285.88 11.23 285.88 10.53C285.88 10.39 285.73 10.39 285.60 10.39C285.49 10.39 285.36 10.39 285.36 10.51C285.35 11.06 285.35 11.41 285.32 11.76C285.29 12.01 285.29 12.04 285.19 12.04C285.04 12.04 282.41 12.08 280.91 12.08C280.84 12.08 280.80 10.11 280.76 8.26C280.76 8.06 280.80 8.09 280.94 8.09L283.22 8.09C283.92 8.09 283.95 8.20 283.95 8.30L283.95 9.00C283.95 9.14 284.13 9.14 284.24 9.14C284.34 9.14 284.47 9.13 284.47 9.02C284.47 8.83 284.44 8.33 284.44 7.83C284.44 7.32 284.47 6.83 284.47 6.71C284.47 6.59 284.33 6.58 284.23 6.58C284.12 6.58 283.95 6.59 283.95 6.72L283.95 7.45C283.95 7.62 283.50 7.63 283.22 7.63L280.88 7.63C280.77 7.63 280.76 7.63 280.76 7.45C280.74 6.75 280.73 6.06 280.73 5.46C280.73 5.12 280.73 3.71 280.81 3.71C282.04 3.71 284.55 3.75 284.55 3.81C284.55 3.99 284.51 4.83 284.51 4.89C284.51 5.04 284.58 5.10 284.76 5.10C284.96 5.10 285.03 5.08 285.03 4.94C285.03 3.85 285.08 3.36 285.08 3.09C285.08 2.91 285.00 2.90 284.80 2.90C284.61 2.90 284.61 2.95 284.58 3.11C284.56 3.25 284.63 3.25 283.72 3.25C283.11 3.25 280.97 3.29 280.20 3.29C279.71 3.29 278.77 3.25 278.67 3.25C278.54 3.25 278.49 3.30 278.49 3.49C278.49 3.72 278.56 3.74 278.73 3.74L279.38 3.74C279.44 3.74 279.51 4.79 279.51 5.71C279.51 5.80 279.57 8.27 279.57 9.83L279.57 11.17C279.57 11.84 279.54 12.18 279.51 12.18L278.66 12.18C278.43 12.18 278.38 12.21 278.38 12.39ZM293.85 12.39C293.85 12.63 293.87 12.68 294.07 12.68C294.39 12.68 295.36 12.64 295.78 12.64C296.20 12.64 300.71 12.68 301.03 12.68C301.15 12.68 301.31 12.66 301.31 12.49C301.31 12.07 301.35 11.23 301.35 10.53C301.35 10.39 301.20 10.39 301.07 10.39C300.96 10.39 300.83 10.39 300.83 10.51C300.82 11.06 300.82 11.41 300.79 11.76C300.76 12.01 300.76 12.04 300.66 12.04C300.51 12.04 297.88 12.08 296.38 12.08C296.31 12.08 296.27 10.11 296.23 8.26C296.23 8.06 296.27 8.09 296.41 8.09L298.69 8.09C299.39 8.09 299.42 8.20 299.42 8.30L299.42 9.00C299.42 9.14 299.60 9.14 299.71 9.14C299.81 9.14 299.94 9.13 299.94 9.02C299.94 8.83 299.91 8.33 299.91 7.83C299.91 7.32 299.94 6.83 299.94 6.71C299.94 6.59 299.80 6.58 299.70 6.58C299.59 6.58 299.42 6.59 299.42 6.72L299.42 7.45C299.42 7.62 298.97 7.63 298.69 7.63L296.35 7.63C296.24 7.63 296.23 7.63 296.23 7.45C296.21 6.75 296.20 6.06 296.20 5.46C296.20 5.12 296.20 3.71 296.28 3.71C297.51 3.71 300.02 3.75 300.02 3.81C300.02 3.99 299.98 4.83 299.98 4.89C299.98 5.04 300.05 5.10 300.23 5.10C300.43 5.10 300.50 5.08 300.50 4.94C300.50 3.85 300.55 3.36 300.55 3.09C300.55 2.91 300.47 2.90 300.27 2.90C300.08 2.90 300.08 2.95 300.05 3.11C300.03 3.25 300.10 3.25 299.19 3.25C298.58 3.25 296.44 3.29 295.67 3.29C295.18 3.29 294.24 3.25 294.14 3.25C294.01 3.25 293.96 3.30 293.96 3.49C293.96 3.72 294.03 3.74 294.20 3.74L294.85 3.74C294.91 3.74 294.98 4.79 294.98 5.71C294.98 5.80 295.04 8.27 295.04 9.83L295.04 11.17C295.04 11.84 295.01 12.18 294.98 12.18L294.13 12.18C293.90 12.18 293.85 12.21 293.85 12.39ZM309.25 12.46C309.25 12.63 309.26 12.70 309.44 12.70C309.60 12.70 310.83 12.64 311.22 12.64C312.07 12.64 312.96 12.70 313.81 12.70C316.43 12.70 318.82 11.07 318.82 7.91C318.82 4.89 316.48 3.07 313.45 3.07C312.89 3.07 311.63 3.23 310.59 3.23C310.11 3.23 309.65 3.22 309.60 3.22C309.41 3.22 309.40 3.32 309.40 3.49C309.40 3.68 309.47 3.70 309.60 3.70L310.56 3.67C310.59 3.67 310.59 4.20 310.59 4.72C310.59 5.91 310.51 12.21 310.42 12.21L309.53 12.21C309.34 12.21 309.25 12.22 309.25 12.46ZM311.82 11.40C311.82 9.46 311.82 7.52 311.84 5.60C311.84 5.03 311.88 3.61 311.92 3.60C312.21 3.53 312.80 3.51 313.15 3.51C315.71 3.51 317.32 5.75 317.32 7.73C317.32 8.95 317.28 12.25 312.61 12.25C312.34 12.25 311.93 12.25 311.84 12.21C311.82 12.19 311.82 11.79 311.82 11.40ZM327.14 5.77C327.14 9.07 332.12 8.20 332.12 10.65C332.12 11.59 331.28 12.31 330.30 12.31C329.48 12.31 327.88 11.83 327.85 11.47L327.77 10.15C327.75 9.97 327.68 9.91 327.50 9.91L327.43 9.91C327.22 9.91 327.22 10.00 327.22 10.12C327.22 10.32 327.33 11.66 327.36 12.17C327.38 12.38 328.64 12.85 330.18 12.85C331.74 12.85 333.35 11.87 333.35 10.11C333.35 6.79 328.38 7.87 328.38 5.32C328.38 4.31 329.17 3.56 330.20 3.56C331.23 3.56 332.32 4.58 332.32 4.89C332.32 5.01 332.28 5.73 332.28 5.78C332.28 5.92 332.32 5.99 332.58 5.99C332.82 5.99 332.84 5.94 332.84 5.75C332.84 5.04 332.92 3.68 332.92 3.53C332.92 3.30 332.88 3.29 332.61 3.29C332.39 3.29 332.37 3.32 332.36 3.53C332.36 3.61 332.35 3.78 332.30 3.78C332.25 3.78 332.16 3.74 332.09 3.68C331.30 3.14 330.68 3.08 330.18 3.08C328.65 3.08 327.14 4.17 327.14 5.77ZM351.12 12.39C351.12 12.63 351.13 12.68 351.33 12.68C351.51 12.68 351.89 12.64 352.51 12.64C353.14 12.64 353.70 12.68 354.02 12.68C354.19 12.68 354.19 12.61 354.19 12.40C354.19 12.24 354.19 12.18 354.02 12.18L352.81 12.18C352.77 12.18 352.76 11.54 352.76 10.79C352.76 9.46 352.77 7.48 352.77 5.99C352.77 5.25 352.77 4.84 352.79 4.28C352.79 4.02 352.86 4.14 352.98 4.28L359.87 12.66C359.95 12.75 360.04 12.89 360.15 12.89C360.26 12.89 360.33 12.77 360.33 12.54C360.33 12.39 360.50 6.65 360.51 4.48C360.51 4.06 360.54 3.70 360.57 3.70L361.20 3.70C361.42 3.70 361.48 3.68 361.48 3.49C361.48 3.25 361.48 3.19 361.28 3.19C361.09 3.19 360.65 3.23 360.09 3.23C359.48 3.23 358.68 3.19 358.58 3.19C358.41 3.19 358.41 3.26 358.41 3.47C358.41 3.64 358.41 3.70 358.58 3.70L359.88 3.70C359.90 3.70 359.90 4.33 359.90 4.44C359.90 5.85 359.93 8.33 359.93 9.70L359.93 10.29C359.93 10.57 359.91 10.65 359.69 10.37L354.00 3.39C353.89 3.25 353.86 3.19 353.70 3.19C353.61 3.19 353.23 3.23 352.93 3.23C352.63 3.23 351.55 3.19 351.36 3.19C351.19 3.19 351.16 3.26 351.16 3.47C351.16 3.64 351.19 3.70 351.36 3.70L352.27 3.70C352.27 4.17 352.23 8.53 352.16 10.79C352.13 11.69 352.14 12.18 352.03 12.18L351.39 12.18C351.16 12.18 351.12 12.19 351.12 12.39ZM369.59 8.15C369.59 11.17 371.92 12.80 374.18 12.80C376.96 12.80 378.94 10.89 378.94 8.06C378.94 5.33 377.19 3.11 374.39 3.11C371.78 3.11 369.59 5.10 369.59 8.15ZM370.99 7.77C370.99 5.64 372.27 3.58 374.25 3.58C376.49 3.58 377.57 5.81 377.57 7.94C377.57 10.08 376.46 12.32 374.19 12.32C372.20 12.32 370.99 10.28 370.99 7.77ZM397.05 5.77C397.05 9.07 402.04 8.20 402.04 10.65C402.04 11.59 401.20 12.31 400.22 12.31C399.39 12.31 397.80 11.83 397.77 11.47L397.68 10.15C397.67 9.97 397.60 9.91 397.42 9.91L397.35 9.91C397.14 9.91 397.14 10.00 397.14 10.12C397.14 10.32 397.25 11.66 397.28 12.17C397.29 12.38 398.55 12.85 400.09 12.85C401.66 12.85 403.27 11.87 403.27 10.11C403.27 6.79 398.30 7.87 398.30 5.32C398.30 4.31 399.08 3.56 400.12 3.56C401.14 3.56 402.23 4.58 402.23 4.89C402.23 5.01 402.19 5.73 402.19 5.78C402.19 5.92 402.23 5.99 402.50 5.99C402.74 5.99 402.75 5.94 402.75 5.75C402.75 5.04 402.84 3.68 402.84 3.53C402.84 3.30 402.79 3.29 402.53 3.29C402.30 3.29 402.29 3.32 402.28 3.53C402.28 3.61 402.26 3.78 402.22 3.78C402.16 3.78 402.08 3.74 402.01 3.68C401.21 3.14 400.60 3.08 400.09 3.08C398.57 3.08 397.05 4.17 397.05 5.77ZM410.83 5.01C410.83 5.17 411.01 5.17 411.14 5.17C411.29 5.17 411.33 5.15 411.35 4.97L411.46 3.89C411.47 3.81 412.02 3.75 412.78 3.75L414.76 3.75C414.82 3.75 414.85 4.35 414.85 4.97C414.85 6.43 414.79 12.18 414.67 12.18L413.80 12.18C413.57 12.18 413.53 12.19 413.53 12.39C413.53 12.63 413.55 12.68 413.74 12.68C414.06 12.68 415.04 12.64 415.46 12.64C415.88 12.64 416.82 12.68 417.14 12.68C417.31 12.68 417.34 12.61 417.34 12.40C417.34 12.24 417.31 12.18 417.14 12.18L416.15 12.18C416.12 12.18 416.12 11.76 416.12 11.31C416.12 9.56 416.21 5.96 416.21 5.92C416.22 5.18 416.22 3.75 416.32 3.75L417.93 3.75C418.64 3.75 419.47 3.78 419.47 3.85C419.47 3.99 419.43 4.90 419.43 4.97C419.43 5.12 419.50 5.17 419.68 5.17C419.87 5.17 419.94 5.17 419.94 5.03C419.94 3.93 420.00 3.40 420.00 3.14C420.00 2.94 419.92 2.94 419.72 2.94C419.57 2.94 419.51 2.98 419.50 3.16C419.50 3.23 418.85 3.28 418.01 3.28L413.01 3.28C412.36 3.28 411.54 3.28 411.54 3.21L411.54 3.07C411.54 2.94 411.42 2.94 411.32 2.94C411.10 2.94 411.07 3.00 411.05 3.19C411.00 3.89 410.83 4.97 410.83 5.01ZM427.76 3.51C427.76 3.72 427.83 3.79 428.02 3.79L428.83 3.77C428.93 3.77 428.97 6.61 428.97 8.55L428.97 10.42C428.97 11.30 428.96 12.18 428.92 12.18L428.32 12.18C428.09 12.18 428.02 12.19 428.02 12.39C428.02 12.63 428.06 12.68 428.26 12.68C428.39 12.68 429.21 12.64 429.63 12.64C430.05 12.64 430.82 12.68 431.14 12.68C431.31 12.68 431.34 12.61 431.34 12.40C431.34 12.24 431.31 12.18 431.14 12.18L430.33 12.18C430.26 12.18 430.18 9.18 430.18 8.37C430.18 8.30 430.18 8.26 430.29 8.26C430.68 8.26 431.28 8.27 431.58 8.27C433.82 8.32 433.96 10.00 433.96 11.68L433.96 12.49C433.96 12.61 434.01 12.64 434.11 12.64C434.11 12.64 435.55 12.68 436.03 12.68C436.20 12.68 436.25 12.64 436.25 12.53C436.25 12.24 436.20 12.18 436.04 12.18L435.40 12.18C435.30 12.18 435.27 12.14 435.25 11.31C435.16 8.99 433.79 8.34 432.88 8.05C432.74 8.01 432.77 8.01 432.88 7.95C433.47 7.69 434.78 6.94 434.78 5.63C434.78 3.63 433.09 3.21 431.69 3.21C431.37 3.21 430.08 3.29 429.66 3.29C429.24 3.29 428.26 3.26 428.04 3.26C427.85 3.26 427.76 3.28 427.76 3.51ZM430.18 7.80L430.18 4.40C430.18 4.05 430.21 3.68 430.25 3.68C430.46 3.65 430.74 3.65 430.96 3.65C432.26 3.65 433.51 4.47 433.51 5.82C433.51 6.99 432.96 7.57 432.31 7.88C432.26 7.90 432.22 7.90 432.15 7.90C431.68 7.88 430.96 7.88 430.36 7.87C430.19 7.87 430.18 7.85 430.18 7.80ZM443.59 12.39C443.59 12.63 443.59 12.68 443.79 12.68C443.95 12.68 444.28 12.64 444.85 12.64C445.47 12.64 446.01 12.68 446.17 12.68C446.33 12.68 446.33 12.61 446.33 12.40C446.33 12.24 446.33 12.18 446.17 12.18L445.09 12.18C445.09 12.18 445.07 12.18 445.07 12.17C445.09 11.87 445.86 9.90 446.21 9.02C446.28 8.83 446.29 8.79 446.50 8.79L449.33 8.79C449.47 8.79 449.47 8.81 449.54 9.03C449.81 9.77 450.52 11.89 450.52 12.17C450.52 12.18 450.51 12.18 450.51 12.18L449.74 12.18C449.51 12.18 449.50 12.19 449.50 12.39C449.50 12.63 449.51 12.68 449.68 12.68C450.00 12.68 450.87 12.64 451.29 12.64C451.71 12.64 452.38 12.68 452.59 12.68C452.73 12.68 452.75 12.61 452.75 12.40C452.75 12.24 452.73 12.18 452.59 12.18L452.10 12.18C452.00 12.18 450.98 9.34 450.42 7.78L448.74 3.07C448.73 3.00 448.66 2.94 448.57 2.94C448.45 2.94 448.35 3.16 448.27 3.35C448.11 3.71 447.87 3.84 447.76 4.13L446.28 7.57C446.10 8.01 444.39 12.18 444.26 12.18L443.84 12.18C443.62 12.18 443.59 12.19 443.59 12.39ZM446.49 8.33C446.49 8.30 446.52 8.23 446.56 8.13L447.93 4.77C447.97 4.66 448.00 4.61 448.03 4.61C448.04 4.61 448.06 4.63 448.10 4.77L449.26 8.18C449.29 8.25 449.30 8.29 449.30 8.32C449.30 8.36 449.27 8.37 449.18 8.37L446.67 8.37C446.49 8.37 446.49 8.34 446.49 8.33ZM460.36 12.39C460.36 12.63 460.40 12.68 460.60 12.68C460.92 12.68 461.68 12.64 462.39 12.64C463.05 12.64 463.85 12.68 464.07 12.68C464.24 12.68 464.27 12.61 464.27 12.40C464.27 12.24 464.24 12.18 464.07 12.18L463.11 12.18C463.01 12.18 462.98 9.55 462.98 7.76L462.98 5.87C462.98 5.14 463.01 3.70 463.11 3.70L464.02 3.70C464.24 3.70 464.27 3.68 464.27 3.49C464.27 3.25 464.24 3.19 464.07 3.19C463.75 3.19 463.08 3.23 462.42 3.23C461.61 3.23 460.89 3.19 460.67 3.19C460.49 3.19 460.42 3.21 460.42 3.44C460.42 3.68 460.50 3.70 460.67 3.70L461.59 3.70C461.64 3.70 461.71 4.79 461.71 5.71L461.71 7.08C461.71 8.92 461.69 12.18 461.58 12.18L460.66 12.18C460.43 12.18 460.36 12.19 460.36 12.39ZM472.16 12.39C472.16 12.63 472.18 12.68 472.37 12.68C472.56 12.68 472.93 12.64 473.55 12.64C474.18 12.64 474.74 12.68 475.06 12.68C475.23 12.68 475.23 12.61 475.23 12.40C475.23 12.24 475.23 12.18 475.06 12.18L473.86 12.18C473.82 12.18 473.80 11.54 473.80 10.79C473.80 9.46 473.82 7.48 473.82 5.99C473.82 5.25 473.82 4.84 473.83 4.28C473.83 4.02 473.90 4.14 474.03 4.28L480.91 12.66C481.00 12.75 481.08 12.89 481.19 12.89C481.31 12.89 481.38 12.77 481.38 12.54C481.38 12.39 481.54 6.65 481.56 4.48C481.56 4.06 481.59 3.70 481.61 3.70L482.24 3.70C482.47 3.70 482.52 3.68 482.52 3.49C482.52 3.25 482.52 3.19 482.33 3.19C482.13 3.19 481.70 3.23 481.14 3.23C480.52 3.23 479.72 3.19 479.63 3.19C479.46 3.19 479.46 3.26 479.46 3.47C479.46 3.64 479.46 3.70 479.63 3.70L480.93 3.70C480.94 3.70 480.94 4.33 480.94 4.44C480.94 5.85 480.97 8.33 480.97 9.70L480.97 10.29C480.97 10.57 480.96 10.65 480.73 10.37L475.05 3.39C474.94 3.25 474.91 3.19 474.74 3.19C474.66 3.19 474.28 3.23 473.97 3.23C473.68 3.23 472.60 3.19 472.40 3.19C472.23 3.19 472.21 3.26 472.21 3.47C472.21 3.64 472.23 3.70 472.40 3.70L473.31 3.70C473.31 4.17 473.27 8.53 473.20 10.79C473.17 11.69 473.19 12.18 473.07 12.18L472.43 12.18C472.21 12.18 472.16 12.19 472.16 12.39Z"></path>
    </g>
</svg>